<svg xmlns="http://www.w3.org/2000/svg" viewBox="0 0 576.1 102.2"><defs><style>.a{fill:#fff;}</style></defs><title>nba-advanced-stats-logo</title><path class="a" d="M14.7.8,27.2,90C25.8,73.1,24,44.6,24,32.2V.8h9.6V101.3H19.7L7.6,14c1,16.5,1.8,38.8,1.8,48.7v38.6H0V.8ZM53.2,101.3H41V.8H53.2C64.6.8,71.4,5.2,71.4,22.6V32.9c0,10.6-2.8,15.9-6.8,18.6,4.1,2.5,7,7.6,7,17.6V79.5C71.7,97.3,64.6,101.3,53.2,101.3ZM51.3,10.8V47.4h1.8c5.1,0,8-2.4,8-12.8V22.3c0-8.7-2.5-11.5-7.6-11.5Zm0,45.6v35H54c4.6,0,7.5-2,7.5-12V68c0-9.8-3-11.7-7.7-11.7H51.3ZM85,.8H99.8l9.6,100.5H98.6L96.9,79.2h-10l-1.7,22.1H74.8ZM87.7,69H96L94.7,53.2c-.6-7.3-2.1-30.3-3-44.2-1,13.6-2.1,35.7-2.8,44.2Z"/><path class="a" d="M133.2.8H148l9.6,100.5H146.8l-1.7-22.1h-10l-1.7,22.1H123ZM135.8,69h8.3l-1.3-15.8c-.6-7.3-2.1-30.3-3-44.2-1,13.6-2.1,35.7-2.8,44.2Z"/><path class="a" d="M192.2,101.3h-8.3a32.9,32.9,0,0,1-1-3.7,13.4,13.4,0,0,1-10.1,4.5c-5.8,0-10.3-3.2-10.3-12.1V34c0-9.1,4.5-12.4,10.3-12.4a12.4,12.4,0,0,1,9.3,3.7V.8h10.1ZM172.8,87.6c0,3.5,1.1,5.3,4.4,5.3a9.2,9.2,0,0,0,4.9-1.5V32.3a9.8,9.8,0,0,0-4.9-1.5c-3.1,0-4.4,2-4.4,5.2Z"/><path class="a" d="M220.5,101.3H206.7l-8.9-78.8h10.6L214,91l5.8-68.5h10Z"/><path class="a" d="M233.9,72.3c0-12.2,8.3-17,19.6-15.8V38.6c0-5.6-1-7.9-4.6-7.9s-4.6,2.3-4.6,7.9V49H234.2V39.6c0-13.6,5.1-18,14.8-18s14.8,4.5,14.8,18.3v61.3h-8.3c-.4-1.3-.7-2.7-1-4.1a12.6,12.6,0,0,1-10,4.9c-6.1,0-10.4-3.4-10.4-12.5V72.3ZM248.5,93a10,10,0,0,0,4.9-1.4v-28c-6.1,0-9.3,1.3-9.3,8.4V86.9C244.1,90.6,245.1,93,248.5,93Z"/><path class="a" d="M271.2,22.5h8.3a29.7,29.7,0,0,1,1,3.8,12.9,12.9,0,0,1,10.3-4.6c5.6,0,10.1,3.2,10.1,12.1v67.5H290.8V36.1c0-3.4-1.3-5.3-4.4-5.3a8.6,8.6,0,0,0-4.9,1.5v68.9H271.2Z"/><path class="a" d="M338.1,84c0,14.5-5.6,18.2-14.8,18.2S308.4,98.5,308.4,84V40c0-14.5,5.8-18.3,14.9-18.3s14.8,3.7,14.8,18.2v9H328V38.1c0-5.1-1.1-7.3-4.6-7.3s-4.6,2.3-4.6,7.3V85.6c0,5.1,1,7.3,4.6,7.3s4.6-2.3,4.6-7.3v-12h10.1Z"/><path class="a" d="M355.3,65.9V85.6c0,5.1,1,7.3,4.6,7.3s4.6-2.3,4.6-7.3V73.5h10.1V83.9c0,14.5-5.6,18.2-14.8,18.2s-14.9-3.7-14.9-18.2v-44c0-14.5,5.8-18.3,14.9-18.3s14.8,3.7,14.8,18.2V66H355.3Zm0-7.4h9.3V38.1c0-5.1-1.1-7.3-4.6-7.3s-4.6,2.3-4.6,7.3V58.5Z"/><path class="a" d="M412,101.3h-8.3a32.9,32.9,0,0,1-1-3.7,13.4,13.4,0,0,1-10.1,4.5c-5.8,0-10.3-3.2-10.3-12.1V34c0-9.1,4.5-12.4,10.3-12.4a12.4,12.4,0,0,1,9.3,3.7V.8H412ZM392.6,87.6c0,3.5,1.1,5.3,4.4,5.3a9.2,9.2,0,0,0,4.9-1.5V32.3a9.8,9.8,0,0,0-4.9-1.5c-3.1,0-4.4,2-4.4,5.2Z"/><path class="a" d="M459.7,82.5c0,14.2-6.2,19.6-15.2,19.6S429,96.6,429,83V68.4h10.4V84.3c0,5.9,1.4,8,5.1,8s4.8-3,4.8-8.7V78.8c0-7.6-1.3-11-9.6-22.9-6.8-10-10.4-17.4-10.4-29V20.4C429.3,6.2,434.9,0,444.6,0s15.2,3.9,15.2,20.4V34.3H449.5V18.9c0-6.3-1-9.1-4.9-9.1s-5.1,2.5-5.1,9.1v5.9c0,9.6,2.1,13.9,8.9,23.6,8,11.8,11.3,17.2,11.3,28.7v5.4Z"/><path class="a" d="M467.9,22.5V7.7l10.3-1.5V22.5h5.5v9h-5.5V88.1c0,3.4,1,4.6,4.2,4.6h1.7v8.6a20.4,20.4,0,0,1-5.5.6c-6.5,0-10.7-3-10.7-12.7V31.5h-3.8v-9Z"/><path class="a" d="M488.1,72.3c0-12.2,8.3-17,19.6-15.8V38.6c0-5.6-1-7.9-4.6-7.9s-4.6,2.3-4.6,7.9V49H488.2V39.6c0-13.6,5.1-18,14.8-18s14.8,4.5,14.8,18.3v61.3h-8.3c-.4-1.3-.7-2.7-1-4.1a12.6,12.6,0,0,1-10,4.9c-6.1,0-10.4-3.4-10.4-12.5V72.3ZM502.7,93a10,10,0,0,0,4.9-1.4v-28c-6,0-9.3,1.3-9.3,8.4V86.9C498.4,90.6,499.4,93,502.7,93Z"/><path class="a" d="M526.2,22.5V7.7l10.3-1.5V22.5H542v9h-5.5V88.1c0,3.4,1,4.6,4.2,4.6h1.7v8.6a20.4,20.4,0,0,1-5.5.6c-6.5,0-10.7-3-10.7-12.7V31.5h-3.8v-9Z"/><path class="a" d="M557.2,65.1c-6.2-8.2-10.8-16-10.8-25.8s4.1-17.7,14.8-17.7,14.8,5.1,14.8,18v7.9H565.9V39.2c0-6.5-1-8.7-4.5-8.7s-4.8,2.4-4.8,7.7S560,50.7,566,58.6c7.2,9.4,10.1,18.2,10.1,25.9,0,11.1-4.6,17.6-15.1,17.6s-14.6-4.9-14.6-18.4V76.1h10.1v8c0,6.5,1,9.1,4.8,9.1s4.5-2.8,4.5-7.7S563.4,73.1,557.2,65.1Z"/></svg>