<?xml version="1.0" encoding="utf-8"?>
<!-- Generator: Adobe Illustrator 22.1.0, SVG Export Plug-In . SVG Version: 6.00 Build 0)  -->
<svg version="1.1" id="Ebene_1" xmlns="http://www.w3.org/2000/svg" xmlns:xlink="http://www.w3.org/1999/xlink" x="0px" y="0px"
	 viewBox="0 0 300 62" style="enable-background:new 0 0 300 62;" xml:space="preserve">
<style type="text/css">
	.st0{fill:#FFFFFF;}
	.st1{fill:#F0AB00;}
	.st2{clip-path:url(#SVGID_2_);fill:url(#SVGID_3_);}
	.st3{fill-rule:evenodd;clip-rule:evenodd;fill:#FFFFFF;}
</style>
<rect y="0" width="300" height="62"/>
<g>
	<path class="st0" d="M14.003418,27.1386719V14.5546875h2.7641602l5.2709961,8.0268555h0.0332031v-8.0268555h2.5566406v12.5839844
		h-2.5566406l-5.4868164-8.0932617h-0.0332031v8.0932617H14.003418z"/>
	<path class="st0" d="M27.2099609,27.1386719V14.5546875h5.0302734c0.5756836,0,1.1328125,0.0429688,1.6728516,0.1289062
		c0.5390625,0.0854492,1.0180664,0.2446289,1.4355469,0.4770508c0.4179688,0.2324219,0.7529297,0.5507812,1.0048828,0.9545898
		c0.2514648,0.4038086,0.3774414,0.9213867,0.3774414,1.5522461c0,0.4428711-0.0664062,0.831543-0.1992188,1.1665039
		c-0.1328125,0.3344727-0.3085938,0.6181641-0.5268555,0.8505859c-0.21875,0.2324219-0.4736328,0.4189453-0.7636719,0.5605469
		c-0.2910156,0.140625-0.59375,0.2446289-0.9091797,0.3110352v0.0415039
		c0.3818359,0.0664062,0.7373047,0.1699219,1.0664062,0.3115234c0.3295898,0.140625,0.6186523,0.3330078,0.8676758,0.5766602
		s0.4438477,0.543457,0.5854492,0.9008789c0.140625,0.3564453,0.2114258,0.7841797,0.2114258,1.2822266
		c0,0.6362305-0.1274414,1.1757812-0.3818359,1.6186523s-0.5932617,0.7998047-1.0170898,1.0708008
		c-0.4228516,0.2709961-0.9101562,0.46875-1.4609375,0.59375c-0.550293,0.1240234-1.1191406,0.1865234-1.7055664,0.1865234
		H27.2099609z M29.9243164,19.7426758h2.0419922c0.7250977,0,1.2573242-0.1298828,1.5981445-0.3901367
		c0.3398438-0.2602539,0.5102539-0.6337891,0.5102539-1.1206055c0-0.4980469-0.1591797-0.8769531-0.4770508-1.137207
		c-0.3183594-0.2602539-0.8510742-0.3901367-1.5981445-0.3901367h-2.0751953V19.7426758z M29.9243164,25.0302734h2.2329102
		c0.769043,0,1.3295898-0.144043,1.6806641-0.4316406c0.3515625-0.2875977,0.5273438-0.7055664,0.5273438-1.253418
		c0-1.0957031-0.7773438-1.6435547-2.3325195-1.6435547h-2.1083984V25.0302734z"/>
	<path class="st0" d="M37.8657227,27.1386719l4.4492188-12.6337891h2.6396484l4.4492188,12.6337891h-2.8056641l-0.9296875-2.8056641
		h-4.2832031l-0.9711914,2.8056641H37.8657227z M42.065918,22.3242188h2.9550781l-1.4443359-4.2832031H43.543457
		L42.065918,22.3242188z"/>
	<path class="st0" d="M54.8125,27.1386719v-9.0644531h2.7392578v1.519043h0.0166016
		c0.121582-0.1938477,0.2709961-0.3901367,0.4482422-0.5893555s0.387207-0.3803711,0.6308594-0.5439453
		c0.2436523-0.1630859,0.5268555-0.2988281,0.8510742-0.40625c0.3232422-0.1083984,0.6982422-0.1621094,1.1245117-0.1621094
		h0.0913086l-0.0415039,2.4321289c-0.0551758-0.0112305-0.1645508-0.0219727-0.3276367-0.0332031
		c-0.1635742-0.0112305-0.2919922-0.0166016-0.3862305-0.0166016c-0.5424805,0-1.0141602,0.1245117-1.4155273,0.3735352
		c-0.4008789,0.2490234-0.7314453,0.5366211-0.9916992,0.8632812v5.6279297H54.8125z"/>
	<path class="st0" d="M64.565918,27.3295898c-0.3818359,0-0.734375-0.0483398-1.0585938-0.1450195
		c-0.3232422-0.097168-0.6044922-0.253418-0.8422852-0.4692383s-0.421875-0.4912109-0.5522461-0.8256836
		c-0.1298828-0.3349609-0.1948242-0.7348633-0.1948242-1.199707v-6.6157227h2.730957v5.8188477
		c0,0.409668,0.0830078,0.7207031,0.2490234,0.934082c0.1660156,0.2128906,0.4399414,0.3193359,0.8217773,0.3193359
		c0.3652344,0,0.7094727-0.0869141,1.0336914-0.2617188c0.3232422-0.1738281,0.6376953-0.3911133,0.9418945-0.6513672v-6.1591797
		h2.7392578v9.0644531h-2.7392578v-1.4111328c-0.1381836,0.1713867-0.3032227,0.3525391-0.4936523,0.5439453
		c-0.1914062,0.1904297-0.4165039,0.3637695-0.6767578,0.5185547s-0.5517578,0.2836914-0.8759766,0.3857422
		C65.3256836,27.2783203,64.9643555,27.3295898,64.565918,27.3295898z"/>
	<path class="st0" d="M72.5263672,27.1386719v-9.0644531h2.7392578v1.4277344
		c0.1328125-0.1772461,0.2958984-0.3598633,0.4897461-0.5478516s0.4204102-0.3613281,0.6806641-0.5185547
		c0.2602539-0.1582031,0.5517578-0.2880859,0.8759766-0.390625c0.3232422-0.1020508,0.6845703-0.1533203,1.0830078-0.1533203
		c0.3818359,0,0.734375,0.0512695,1.0585938,0.1533203c0.3232422,0.1025391,0.6015625,0.2587891,0.8339844,0.4692383
		s0.4135742,0.4814453,0.5439453,0.8134766c0.1298828,0.3320312,0.1948242,0.7304688,0.1948242,1.1953125v6.6157227h-2.7226562
		v-5.7441406c0-0.409668-0.081543-0.7192383-0.2446289-0.9296875c-0.1635742-0.2104492-0.4389648-0.3154297-0.8261719-0.3154297
		c-0.3598633,0-0.7011719,0.0859375-1.0253906,0.2573242c-0.3232422,0.1713867-0.6376953,0.387207-0.9418945,0.6474609v6.0844727
		H72.5263672z"/>
	<path class="st0" d="M86.5878906,27.3295898c-0.9960938,0-1.8344727-0.1342773-2.5151367-0.402832
		c-0.6806641-0.2680664-1.253418-0.5986328-1.7182617-0.9916992l1.0874023-1.5356445
		c0.409668,0.3652344,0.8979492,0.652832,1.4648438,0.8632812c0.5673828,0.2104492,1.1279297,0.3154297,1.6811523,0.3154297
		c0.4316406,0,0.7802734-0.074707,1.0458984-0.2241211s0.3984375-0.3706055,0.3984375-0.6640625
		c0-0.3154297-0.1298828-0.5478516-0.3901367-0.6972656s-0.7026367-0.2792969-1.328125-0.3901367
		c-0.4316406-0.0776367-0.859375-0.1674805-1.2822266-0.2695312c-0.4238281-0.1025391-0.8027344-0.2563477-1.1376953-0.4609375
		c-0.3344727-0.2045898-0.6069336-0.4746094-0.8173828-0.8095703c-0.2104492-0.3344727-0.3154297-0.7675781-0.3154297-1.2988281
		c0-0.4536133,0.0883789-0.859375,0.265625-1.2158203c0.1772461-0.3574219,0.4233398-0.6572266,0.7387695-0.9008789
		s0.6860352-0.4301758,1.1123047-0.5600586c0.4262695-0.1303711,0.8935547-0.1953125,1.402832-0.1953125
		c0.9296875,0,1.7001953,0.1132812,2.3115234,0.340332c0.6118164,0.2270508,1.1665039,0.5366211,1.6645508,0.9296875
		l-1.0708008,1.5522461c-0.4648438-0.3154297-0.9169922-0.559082-1.3574219-0.7304688
		c-0.4394531-0.1713867-0.8754883-0.2573242-1.3071289-0.2573242c-0.3984375,0-0.7026367,0.0708008-0.9130859,0.2114258
		c-0.2104492,0.1416016-0.3154297,0.3364258-0.3154297,0.5854492c0,0.2709961,0.128418,0.4760742,0.3862305,0.6142578
		c0.2568359,0.1381836,0.6679688,0.2573242,1.2324219,0.3569336c0.4428711,0.0776367,0.8852539,0.1674805,1.328125,0.2695312
		c0.4428711,0.1025391,0.8354492,0.253418,1.1787109,0.4526367s0.6225586,0.4633789,0.8383789,0.7924805
		c0.2158203,0.3295898,0.3237305,0.7485352,0.3237305,1.2578125c0,0.5424805-0.1108398,1.0097656-0.3320312,1.402832
		s-0.5161133,0.7109375-0.8837891,0.9545898c-0.3681641,0.2436523-0.7929688,0.421875-1.2744141,0.5351562
		C87.6088867,27.2729492,87.1079102,27.3295898,86.5878906,27.3295898z"/>
	<path class="st0" d="M96.7563477,16.8374023v-2.1914062h2.7558594v2.1914062H96.7563477z M96.7729492,27.1386719v-9.0644531
		h2.7226562v9.0644531H96.7729492z"/>
	<path class="st0" d="M105.4804688,27.2548828c-0.6694336,0-1.2089844-0.0595703-1.6186523-0.1787109
		c-0.409668-0.1186523-0.7207031-0.2915039-0.934082-0.5185547c-0.2128906-0.2270508-0.3540039-0.503418-0.4228516-0.8300781
		c-0.0693359-0.3266602-0.1040039-0.7055664-0.1040039-1.137207v-4.5239258h-1.5107422v-1.9921875h1.5107422v-3.1044922h2.7226562
		v3.1044922h2.3242188v1.9921875h-2.3242188v3.9262695c0,0.4868164,0.0844727,0.8217773,0.253418,1.0043945
		c0.168457,0.1826172,0.5019531,0.2739258,1,0.2739258c0.1606445,0,0.328125-0.0083008,0.5019531-0.0249023
		c0.1748047-0.0166016,0.3085938-0.0444336,0.402832-0.0830078v1.9589844
		c-0.0551758,0.0112305-0.1523438,0.0249023-0.2905273,0.0415039s-0.2949219,0.0302734-0.46875,0.0415039
		c-0.1748047,0.0112305-0.355957,0.0219727-0.5439453,0.0332031S105.6245117,27.2548828,105.4804688,27.2548828z"/>
	<path class="st0" d="M112.4609375,27.3295898c-0.9960938,0-1.8344727-0.1342773-2.5151367-0.402832
		c-0.6806641-0.2680664-1.253418-0.5986328-1.7182617-0.9916992l1.0874023-1.5356445
		c0.409668,0.3652344,0.8979492,0.652832,1.4648438,0.8632812c0.5673828,0.2104492,1.1279297,0.3154297,1.6811523,0.3154297
		c0.4316406,0,0.7802734-0.074707,1.0458984-0.2241211s0.3984375-0.3706055,0.3984375-0.6640625
		c0-0.3154297-0.1298828-0.5478516-0.3901367-0.6972656s-0.7026367-0.2792969-1.328125-0.3901367
		c-0.4316406-0.0776367-0.859375-0.1674805-1.2822266-0.2695312c-0.4238281-0.1025391-0.8027344-0.2563477-1.1376953-0.4609375
		c-0.3344727-0.2045898-0.6069336-0.4746094-0.8173828-0.8095703c-0.2104492-0.3344727-0.3154297-0.7675781-0.3154297-1.2988281
		c0-0.4536133,0.0883789-0.859375,0.265625-1.2158203c0.1772461-0.3574219,0.4233398-0.6572266,0.7387695-0.9008789
		s0.6860352-0.4301758,1.1123047-0.5600586c0.4262695-0.1303711,0.8935547-0.1953125,1.402832-0.1953125
		c0.9296875,0,1.7001953,0.1132812,2.3115234,0.340332c0.6118164,0.2270508,1.1665039,0.5366211,1.6645508,0.9296875
		l-1.0708008,1.5522461c-0.4648438-0.3154297-0.9169922-0.559082-1.3574219-0.7304688
		c-0.4394531-0.1713867-0.8754883-0.2573242-1.3071289-0.2573242c-0.3984375,0-0.7026367,0.0708008-0.9130859,0.2114258
		c-0.2104492,0.1416016-0.3154297,0.3364258-0.3154297,0.5854492c0,0.2709961,0.128418,0.4760742,0.3862305,0.6142578
		c0.2568359,0.1381836,0.6679688,0.2573242,1.2324219,0.3569336c0.4428711,0.0776367,0.8852539,0.1674805,1.328125,0.2695312
		c0.4428711,0.1025391,0.8354492,0.253418,1.1787109,0.4526367s0.6225586,0.4633789,0.8383789,0.7924805
		c0.2158203,0.3295898,0.3237305,0.7485352,0.3237305,1.2578125c0,0.5424805-0.1108398,1.0097656-0.3320312,1.402832
		s-0.5161133,0.7109375-0.8837891,0.9545898c-0.3681641,0.2436523-0.7929688,0.421875-1.2744141,0.5351562
		C113.4819336,27.2729492,112.980957,27.3295898,112.4609375,27.3295898z"/>
	<path class="st0" d="M126.1157227,27.3295898c-0.9960938,0-1.8344727-0.1342773-2.5151367-0.402832
		c-0.6806641-0.2680664-1.253418-0.5986328-1.7182617-0.9916992l1.0874023-1.5356445
		c0.409668,0.3652344,0.8979492,0.652832,1.4648438,0.8632812c0.5673828,0.2104492,1.1279297,0.3154297,1.6811523,0.3154297
		c0.4316406,0,0.7802734-0.074707,1.0458984-0.2241211s0.3984375-0.3706055,0.3984375-0.6640625
		c0-0.3154297-0.1298828-0.5478516-0.3901367-0.6972656s-0.7026367-0.2792969-1.328125-0.3901367
		c-0.4316406-0.0776367-0.859375-0.1674805-1.2822266-0.2695312c-0.4238281-0.1025391-0.8027344-0.2563477-1.1376953-0.4609375
		c-0.3344727-0.2045898-0.6069336-0.4746094-0.8173828-0.8095703c-0.2104492-0.3344727-0.3154297-0.7675781-0.3154297-1.2988281
		c0-0.4536133,0.0883789-0.859375,0.265625-1.2158203c0.1772461-0.3574219,0.4233398-0.6572266,0.7387695-0.9008789
		s0.6860352-0.4301758,1.1123047-0.5600586c0.4262695-0.1303711,0.8935547-0.1953125,1.402832-0.1953125
		c0.9296875,0,1.7001953,0.1132812,2.3115234,0.340332c0.6118164,0.2270508,1.1665039,0.5366211,1.6645508,0.9296875
		l-1.0708008,1.5522461c-0.4648438-0.3154297-0.9169922-0.559082-1.3574219-0.7304688
		c-0.4394531-0.1713867-0.8754883-0.2573242-1.3071289-0.2573242c-0.3984375,0-0.7026367,0.0708008-0.9130859,0.2114258
		c-0.2104492,0.1416016-0.3154297,0.3364258-0.3154297,0.5854492c0,0.2709961,0.128418,0.4760742,0.3862305,0.6142578
		c0.2568359,0.1381836,0.6679688,0.2573242,1.2324219,0.3569336c0.4428711,0.0776367,0.8852539,0.1674805,1.328125,0.2695312
		c0.4428711,0.1025391,0.8354492,0.253418,1.1787109,0.4526367s0.6225586,0.4633789,0.8383789,0.7924805
		c0.2158203,0.3295898,0.3237305,0.7485352,0.3237305,1.2578125c0,0.5424805-0.1108398,1.0097656-0.3320312,1.402832
		s-0.5161133,0.7109375-0.8837891,0.9545898c-0.3681641,0.2436523-0.7929688,0.421875-1.2744141,0.5351562
		C127.1367188,27.2729492,126.6357422,27.3295898,126.1157227,27.3295898z"/>
	<path class="st0" d="M135.2841797,27.2548828c-0.6694336,0-1.2089844-0.0595703-1.6186523-0.1787109
		c-0.409668-0.1186523-0.7207031-0.2915039-0.934082-0.5185547c-0.2128906-0.2270508-0.3540039-0.503418-0.4228516-0.8300781
		c-0.0693359-0.3266602-0.1040039-0.7055664-0.1040039-1.137207v-4.5239258h-1.5107422v-1.9921875h1.5107422v-3.1044922h2.7226562
		v3.1044922h2.3242188v1.9921875h-2.3242188v3.9262695c0,0.4868164,0.0844727,0.8217773,0.253418,1.0043945
		c0.168457,0.1826172,0.5019531,0.2739258,1,0.2739258c0.1606445,0,0.328125-0.0083008,0.5019531-0.0249023
		c0.1748047-0.0166016,0.3085938-0.0444336,0.402832-0.0830078v1.9589844
		c-0.0551758,0.0112305-0.1523438,0.0249023-0.2905273,0.0415039s-0.2949219,0.0302734-0.46875,0.0415039
		c-0.1748047,0.0112305-0.355957,0.0219727-0.5439453,0.0332031S135.4282227,27.2548828,135.2841797,27.2548828z"/>
	<path class="st0" d="M140.7211914,27.2714844c-0.3540039,0-0.6875-0.0537109-1.0004883-0.1621094
		c-0.3125-0.1074219-0.5878906-0.265625-0.8256836-0.4726562c-0.237793-0.2080078-0.4248047-0.4648438-0.5600586-0.7724609
		c-0.1357422-0.3066406-0.2036133-0.6542969-0.2036133-1.0415039c0-1.0405273,0.4594727-1.8549805,1.3779297-2.4448242
		c0.918457-0.5888672,2.3740234-0.9638672,4.3662109-1.1245117v-0.2158203c0-0.3320312-0.0927734-0.5961914-0.277832-0.7924805
		c-0.1855469-0.1967773-0.4995117-0.2949219-0.9423828-0.2949219c-0.5756836,0-1.1108398,0.1035156-1.6064453,0.3115234
		c-0.4951172,0.2070312-0.9501953,0.4770508-1.3652344,0.809082l-1.1621094-1.5688477
		c0.2270508-0.1992188,0.4853516-0.3955078,0.7763672-0.5893555c0.2900391-0.1938477,0.6166992-0.3666992,0.9794922-0.519043
		c0.3623047-0.1518555,0.7729492-0.2734375,1.2324219-0.3652344c0.4594727-0.0908203,0.9711914-0.1367188,1.5356445-0.1367188
		c1.2451172,0,2.1401367,0.300293,2.6850586,0.9003906c0.5454102,0.6005859,0.8178711,1.4848633,0.8178711,2.6523438v3.4863281
		c0,0.5424805,0.0195312,0.9892578,0.0581055,1.3408203c0.0385742,0.3510742,0.1049805,0.6401367,0.1992188,0.8671875h-2.7226562
		c-0.0551758-0.1938477-0.1035156-0.3984375-0.1455078-0.6142578c-0.0410156-0.2158203-0.0620117-0.4536133-0.0620117-0.7138672
		c-0.4150391,0.4760742-0.8754883,0.8383789-1.3823242,1.0874023
		C141.9873047,27.1469727,141.3964844,27.2714844,140.7211914,27.2714844z M141.8085938,25.2211914
		c0.4760742,0,0.8837891-0.074707,1.2246094-0.2241211c0.3398438-0.1494141,0.6210938-0.3374023,0.8422852-0.5644531v-1.6767578
		c-1.0844727,0.1108398-1.8676758,0.2988281-2.3491211,0.5644531s-0.722168,0.6088867-0.722168,1.0292969
		c0,0.293457,0.0927734,0.5117188,0.277832,0.6557617C141.2675781,25.1494141,141.5097656,25.2211914,141.8085938,25.2211914z"/>
	<path class="st0" d="M152.3505859,27.2548828c-0.6699219,0-1.2089844-0.0595703-1.6191406-0.1787109
		c-0.4091797-0.1186523-0.7197266-0.2915039-0.9335938-0.5185547c-0.2128906-0.2270508-0.3540039-0.503418-0.4228516-0.8300781
		c-0.0693359-0.3266602-0.1040039-0.7055664-0.1040039-1.137207v-4.5239258h-1.5107422v-1.9921875h1.5107422v-3.1044922h2.722168
		v3.1044922h2.3242188v1.9921875h-2.3242188v3.9262695c0,0.4868164,0.0849609,0.8217773,0.2539062,1.0043945
		s0.5019531,0.2739258,1,0.2739258c0.1601562,0,0.328125-0.0083008,0.5019531-0.0249023
		c0.1748047-0.0166016,0.3085938-0.0444336,0.4023438-0.0830078v1.9589844
		c-0.0546875,0.0112305-0.1513672,0.0249023-0.2900391,0.0415039s-0.2949219,0.0302734-0.46875,0.0415039
		c-0.1748047,0.0112305-0.3554688,0.0219727-0.5439453,0.0332031S152.4941406,27.2548828,152.3505859,27.2548828z"/>
	<path class="st0" d="M159.3310547,27.3295898c-0.9960938,0-1.8349609-0.1342773-2.515625-0.402832
		c-0.6806641-0.2680664-1.2539062-0.5986328-1.71875-0.9916992l1.0878906-1.5356445
		c0.4091797,0.3652344,0.8974609,0.652832,1.4648438,0.8632812s1.1279297,0.3154297,1.6816406,0.3154297
		c0.4316406,0,0.7792969-0.074707,1.0449219-0.2241211s0.3984375-0.3706055,0.3984375-0.6640625
		c0-0.3154297-0.1298828-0.5478516-0.3896484-0.6972656s-0.703125-0.2792969-1.328125-0.3901367
		c-0.4316406-0.0776367-0.859375-0.1674805-1.2822266-0.2695312c-0.4238281-0.1025391-0.8027344-0.2563477-1.1376953-0.4609375
		s-0.6074219-0.4746094-0.8173828-0.8095703c-0.2099609-0.3344727-0.3154297-0.7675781-0.3154297-1.2988281
		c0-0.4536133,0.0888672-0.859375,0.265625-1.2158203c0.1767578-0.3574219,0.4228516-0.6572266,0.7392578-0.9008789
		c0.3144531-0.2436523,0.6855469-0.4301758,1.1113281-0.5600586c0.4267578-0.1303711,0.8945312-0.1953125,1.4033203-0.1953125
		c0.9296875,0,1.7001953,0.1132812,2.3115234,0.340332s1.1660156,0.5366211,1.6640625,0.9296875l-1.0703125,1.5522461
		c-0.4648438-0.3154297-0.9169922-0.559082-1.3574219-0.7304688c-0.4394531-0.1713867-0.875-0.2573242-1.3066406-0.2573242
		c-0.3984375,0-0.703125,0.0708008-0.9140625,0.2114258c-0.2099609,0.1416016-0.3144531,0.3364258-0.3144531,0.5854492
		c0,0.2709961,0.1279297,0.4760742,0.3857422,0.6142578c0.2568359,0.1381836,0.6679688,0.2573242,1.2324219,0.3569336
		c0.4423828,0.0776367,0.8857422,0.1674805,1.328125,0.2695312c0.4423828,0.1025391,0.8359375,0.253418,1.1787109,0.4526367
		s0.6230469,0.4633789,0.8378906,0.7924805c0.2167969,0.3295898,0.3242188,0.7485352,0.3242188,1.2578125
		c0,0.5424805-0.1103516,1.0097656-0.3320312,1.402832s-0.515625,0.7109375-0.8837891,0.9545898
		s-0.7929688,0.421875-1.2744141,0.5351562C160.3515625,27.2729492,159.8505859,27.3295898,159.3310547,27.3295898z"/>
	<path class="st0" d="M15.3979492,47.5390625l-2.65625-9.0644531h2.7558594l0.7802734,3.2539062
		c0.0551758,0.2382812,0.109375,0.4609375,0.1621094,0.6679688c0.0522461,0.2080078,0.1005859,0.4169922,0.1450195,0.6269531
		s0.0898438,0.4345703,0.137207,0.671875c0.046875,0.2382812,0.0981445,0.5039062,0.1533203,0.796875h0.0332031
		c0.0551758-0.2929688,0.1049805-0.5615234,0.1494141-0.8046875s0.0927734-0.4726562,0.1455078-0.6894531
		c0.0522461-0.2148438,0.1035156-0.4316406,0.1533203-0.6464844c0.0498047-0.2167969,0.1108398-0.4492188,0.1826172-0.6972656
		l0.7802734-3.1796875h2.125l0.8300781,3.2373047c0.0664062,0.2382812,0.1259766,0.4609375,0.1787109,0.6679688
		c0.0522461,0.2080078,0.1035156,0.4189453,0.1533203,0.6357422c0.0498047,0.2148438,0.1010742,0.4423828,0.1533203,0.6796875
		c0.0527344,0.2382812,0.1069336,0.5039062,0.1621094,0.796875h0.0332031
		c0.0551758-0.28125,0.1064453-0.5419922,0.1533203-0.7792969c0.0473633-0.2382812,0.0957031-0.4648438,0.1455078-0.6816406
		c0.0498047-0.2148438,0.1010742-0.4238281,0.1533203-0.6259766c0.0527344-0.2021484,0.1123047-0.421875,0.1787109-0.6601562
		l0.8300781-3.2705078h2.4321289l-2.6479492,9.0644531h-2.5400391l-1.3530273-5.5283203h-0.0332031l-1.3613281,5.5283203H15.3979492
		z"/>
	<path class="st0" d="M27.0024414,37.2382812V35.046875h2.7558594v2.1914062H27.0024414z M27.019043,47.5390625v-9.0644531
		h2.7226562v9.0644531H27.019043z"/>
	<path class="st0" d="M35.7265625,47.6552734c-0.6694336,0-1.2089844-0.0595703-1.6186523-0.1787109
		s-0.7207031-0.2919922-0.934082-0.5185547c-0.2128906-0.2265625-0.3540039-0.5039062-0.4228516-0.8300781
		c-0.0693359-0.3261719-0.1040039-0.7060547-0.1040039-1.1376953v-4.5234375h-1.5107422v-1.9921875h1.5107422v-3.1044922h2.7226562
		v3.1044922h2.3242188v1.9921875h-2.3242188v3.9257812c0,0.4873047,0.0844727,0.8222656,0.253418,1.0048828
		c0.168457,0.1826172,0.5019531,0.2744141,1,0.2744141c0.1606445,0,0.328125-0.0087891,0.5019531-0.0253906
		c0.1748047-0.0166016,0.3085938-0.0439453,0.402832-0.0830078v1.9589844
		c-0.0551758,0.0107422-0.1523438,0.0244141-0.2905273,0.0419922c-0.1381836,0.015625-0.2949219,0.0302734-0.46875,0.0410156
		c-0.1748047,0.0107422-0.355957,0.0224609-0.5439453,0.0332031S35.8706055,47.6552734,35.7265625,47.6552734z"/>
	<path class="st0" d="M39.1713867,47.5390625V34.9550781h2.7392578v4.9472656
		c0.1328125-0.1767578,0.2958984-0.359375,0.4897461-0.5478516s0.4204102-0.3613281,0.6806641-0.5185547
		c0.2602539-0.1582031,0.5517578-0.2880859,0.8759766-0.390625c0.3232422-0.1025391,0.6816406-0.1533203,1.074707-0.1533203
		c0.387207,0,0.7426758,0.0507812,1.0668945,0.1533203c0.3232422,0.1025391,0.6044922,0.2587891,0.8422852,0.46875
		c0.237793,0.2109375,0.421875,0.4824219,0.5522461,0.8144531c0.1298828,0.3320312,0.1948242,0.7304688,0.1948242,1.1953125
		v6.6152344h-2.7392578v-5.7441406c0-0.4091797-0.081543-0.7197266-0.2446289-0.9296875
		c-0.1635742-0.2099609-0.4331055-0.3154297-0.8095703-0.3154297c-0.3706055,0-0.7177734,0.0859375-1.0419922,0.2568359
		c-0.3232422,0.171875-0.6376953,0.3876953-0.9418945,0.6484375v6.0839844H39.1713867z"/>
	<path class="st1" d="M59.1845703,47.7792969c-0.6806641,0-1.2993164-0.0771484-1.8549805-0.2324219
		c-0.5566406-0.1542969-1.0546875-0.3671875-1.4941406-0.6386719c-0.4404297-0.2714844-0.824707-0.5966797-1.1542969-0.9755859
		c-0.3291016-0.3789062-0.612793-0.7949219-0.8505859-1.2490234l2.0917969-1.2451172
		c0.3486328,0.6914062,0.8203125,1.2216797,1.4150391,1.5898438c0.5952148,0.3681641,1.2548828,0.5517578,1.9799805,0.5517578
		c0.6474609,0,1.1743164-0.1191406,1.581543-0.3574219c0.40625-0.2373047,0.6098633-0.5996094,0.6098633-1.0869141
		c0-0.4755859-0.2172852-0.8408203-0.6518555-1.0957031c-0.434082-0.2548828-1.0664062-0.4951172-1.8964844-0.7216797
		C58.3959961,42.1630859,57.8413086,42,57.2963867,41.828125c-0.5454102-0.171875-1.0351562-0.3955078-1.4697266-0.671875
		c-0.434082-0.2773438-0.7856445-0.6289062-1.0537109-1.0546875c-0.2685547-0.4257812-0.402832-0.96875-0.402832-1.6269531
		c0-0.5869141,0.1108398-1.1123047,0.3320312-1.5771484s0.5297852-0.859375,0.925293-1.1826172
		c0.3959961-0.3242188,0.8720703-0.5703125,1.4277344-0.7392578c0.5566406-0.1689453,1.1748047-0.2529297,1.8554688-0.2529297
		c0.6474609,0,1.2285156,0.0703125,1.7431641,0.2119141c0.5146484,0.140625,0.9765625,0.3300781,1.3862305,0.5683594
		s0.7666016,0.5136719,1.0708008,0.8261719s0.5698242,0.6376953,0.796875,0.9755859l-1.9174805,1.4609375
		c-0.3320312-0.5429688-0.7773438-0.9755859-1.3364258-1.2998047c-0.559082-0.3232422-1.1455078-0.4853516-1.7597656-0.4853516
		c-0.5864258,0-1.0361328,0.1162109-1.3486328,0.3486328c-0.3129883,0.2324219-0.4692383,0.5371094-0.4692383,0.9130859
		c0,0.4980469,0.2241211,0.8691406,0.6723633,1.1123047s1.0844727,0.4785156,1.9091797,0.7060547
		c0.559082,0.1484375,1.109375,0.3134766,1.6518555,0.4931641s1.0292969,0.4140625,1.4609375,0.7021484
		c0.4316406,0.2871094,0.7802734,0.6464844,1.0458984,1.078125s0.3984375,0.9716797,0.3984375,1.6191406
		c0,0.5087891-0.0996094,0.9931641-0.2988281,1.453125c-0.1992188,0.4589844-0.5024414,0.8642578-0.9086914,1.2158203
		c-0.4072266,0.3515625-0.9272461,0.6318359-1.5605469,0.8427734C60.8129883,47.6748047,60.059082,47.7792969,59.1845703,47.7792969
		z"/>
	<path class="st1" d="M64.8100586,47.5390625l4.4492188-12.6337891h2.6396484l4.4492188,12.6337891h-2.8056641l-0.9296875-2.8056641
		h-4.2832031l-0.9711914,2.8056641H64.8100586z M69.0102539,42.7246094h2.9550781l-1.4443359-4.2832031H70.487793
		L69.0102539,42.7246094z"/>
	<path class="st1" d="M77.9335938,47.5390625V34.9550781h4.5737305c0.6640625,0,1.3061523,0.0537109,1.9257812,0.1621094
		c0.6196289,0.1074219,1.1674805,0.3125,1.6435547,0.6142578s0.8549805,0.7119141,1.137207,1.2324219
		s0.4233398,1.1953125,0.4233398,2.0253906c0,0.8466797-0.1494141,1.5341797-0.4482422,2.0625
		s-0.6958008,0.9423828-1.190918,1.2412109c-0.4956055,0.2988281-1.0517578,0.5019531-1.6689453,0.6103516
		c-0.6166992,0.1074219-1.237793,0.1611328-1.8632812,0.1611328h-1.784668v4.4746094H77.9335938z M80.6811523,40.9238281h1.8925781
		c0.8579102,0,1.465332-0.1582031,1.8217773-0.4736328c0.3574219-0.3154297,0.5356445-0.7802734,0.5356445-1.3945312
		c0-0.5869141-0.1757812-1.0390625-0.5268555-1.3574219c-0.3515625-0.3183594-0.9619141-0.4775391-1.8305664-0.4775391h-1.8925781
		V40.9238281z"/>
</g>
<g>
</g>
<g>
	<g>
		<defs>
			<polygon id="SVGID_1_" points="230.7006683,23.5612507 230.7006683,50.2752533 257.9916687,50.2752533 284.7006836,23.5612507 
							"/>
		</defs>
		<clipPath id="SVGID_2_">
			<use xlink:href="#SVGID_1_"  style="overflow:visible;"/>
		</clipPath>
		
			<linearGradient id="SVGID_3_" gradientUnits="userSpaceOnUse" x1="1.0742772" y1="63.2571259" x2="2.0742846" y2="63.2571259" gradientTransform="matrix(0 26.7138004 26.7138004 0 -1432.1375732 -5.1367702)">
			<stop  offset="0" style="stop-color:#1CB5EA"/>
			<stop  offset="0.0439331" style="stop-color:#1DAFE5"/>
			<stop  offset="0.3162662" style="stop-color:#248CCB"/>
			<stop  offset="0.5739191" style="stop-color:#2873B8"/>
			<stop  offset="0.808763" style="stop-color:#2B64AD"/>
			<stop  offset="1" style="stop-color:#2C5FA9"/>
		</linearGradient>
		<rect x="230.7006683" y="23.5612545" class="st2" width="53.9999847" height="26.7140007"/>
	</g>
	<g>
		<path class="st3" d="M262.7461853,28.5844517l-5.3150024-0.0039978v12.638998l-4.6430206-12.638998h-4.6039886
			l-3.9650116,10.5700016c-0.4219971-2.6650009-3.1790009-3.5850029-5.3479919-4.2750015
			c-1.4320068-0.4599991-2.9519958-1.1360016-2.9380035-1.8839989c0.0119934-0.6140022,0.8150024-1.184,2.4069977-1.0980015
			c1.0700073,0.0559998,2.0130005,0.1429996,3.8899994,1.0479984l1.8470001-3.2159977
			c-1.7139893-0.8710022-4.0820007-1.4220009-6.0209961-1.4239998h-0.0119934c-2.2620087,0-4.1480103,0.7319984-5.3170013,1.9399986
			c-0.8140106,0.8440018-1.253006,1.9160023-1.2710114,3.1009998c-0.0299988,1.6310005,0.5680084,2.788002,1.8250122,3.7110023
			c1.0609894,0.7779999,2.4179993,1.2819977,3.6139984,1.6529999c1.4759979,0.4569969,2.6809998,0.8549995,2.6660004,1.7029991
			c-0.0100098,0.3079987-0.128006,0.5960007-0.348999,0.829998c-0.3680115,0.3790016-0.9330139,0.5219994-1.7140045,0.5360031
			c-1.5050049,0.0319977-2.6220093-0.2030029-4.4000092-1.2540016l-1.6419983,3.2599983
			c1.7730103,1.0090027,3.8740082,1.6010017,6.0169983,1.6010017l0.276001-0.0040016
			c1.8660126-0.0329971,3.3710022-0.5639992,4.5740051-1.5329971c0.0690002-0.0550003,0.1309967-0.1110001,0.1940002-0.1680031
			l-0.5330048,1.4239998h4.82901l0.8099976-2.4639969c0.848999,0.2899971,1.8139954,0.4499969,2.8390045,0.4499969
			c0.996994,0,1.9369965-0.1529999,2.769989-0.4259987l0.7810059,2.4399986h7.8750153v-5.1019974h1.7179871
			c4.1499939,0,6.6060181-2.1150017,6.6060181-5.6580009C270.2121887,30.3954525,267.827179,28.5844517,262.7461853,28.5844517
			 M250.4621735,39.3984528c-0.6200104,0-1.2020111-0.1079979-1.7030029-0.2970009l1.6839905-5.3159981h0.0320129
			l1.6559906,5.329998C251.6331635,39.2924538,251.0651703,39.3984528,250.4621735,39.3984528 M263.0591736,36.3444519h-1.17099
			v-4.2829971h1.17099c1.5610046,0,2.8070068,0.5179977,2.8070068,2.112999
			C265.8661804,35.8244553,264.6201782,36.3444519,263.0591736,36.3444519"/>
	</g>
</g>
<g>
	<path class="st0" d="M231.2519989,16.5264149V9.8954935h0.7874603v6.6309214H231.2519989z"/>
	<path class="st0" d="M233.627121,16.5264149V11.79846h0.7787018v0.7038584
		c0.1019287-0.098731,0.2157898-0.197463,0.3407898-0.2930088c0.1258087-0.0971394,0.2627563-0.1831312,0.4116516-0.2611609
		c0.14888-0.076437,0.308136-0.1369495,0.4785156-0.1831303c0.1711884-0.0445881,0.3511353-0.0668831,0.5406342-0.0668831
		c0.4546509,0,0.8018036,0.1226187,1.0406647,0.3710394c0.2396698,0.2484207,0.3591003,0.5971651,0.3591003,1.0446405v3.4125996
		h-0.7699432V13.285799c0-0.3184881-0.0692749-0.5509844-0.2078247-0.7006741
		c-0.1385345-0.148097-0.3598785-0.2229414-0.6624451-0.2229414c-0.2858429,0-0.5501862,0.0684748-0.7922363,0.2054243
		c-0.2420654,0.1369505-0.4880829,0.323266-0.7389069,0.5557623v3.4030447H233.627121z"/>
	<path class="st0" d="M240.4857635,16.6140003c-0.4291534,0-0.8113403-0.0764389-1.1465454-0.2277203
		c-0.3352203-0.1512814-0.597168-0.3439674-0.7866669-0.5764627l0.4633942-0.4649925
		c0.1807404,0.1894999,0.3917389,0.3455591,0.6337891,0.4681768c0.2420502,0.1226187,0.5239105,0.1847239,0.8447876,0.1847239
		c0.3702393,0,0.6521149-0.0636978,0.8463898-0.1879082c0.1934814-0.125803,0.2906189-0.3105259,0.2906189-0.5557623
		c0-0.2388659-0.10112-0.4156265-0.3041534-0.530282c-0.20224-0.1130638-0.5063934-0.2165718-0.9116821-0.3105259
		c-0.2508087-0.0605135-0.4817047-0.1273956-0.6911163-0.1990557c-0.2102051-0.0716591-0.3877563-0.1592436-0.5334625-0.2643452
		c-0.1464996-0.1051006-0.2603607-0.2340879-0.3439636-0.3885555c-0.0828094-0.1544666-0.1242218-0.3455591-0.1242218-0.5732784
		c0-0.1783533,0.0366364-0.3455591,0.1114807-0.5016184c0.0740509-0.1560593,0.1831207-0.2914171,0.3256531-0.4076653
		c0.1433105-0.1178398,0.317688-0.2102013,0.524704-0.278677c0.207016-0.0684748,0.4395142-0.1019163,0.6958923-0.1019163
		c0.4172211,0,0.7675629,0.0605135,1.0518188,0.1831312c0.2842407,0.1226177,0.5358429,0.2882318,0.7548065,0.4984341
		l-0.4028778,0.5111732c-0.1775665-0.1687984-0.3829803-0.3057489-0.6162872-0.4108496
		c-0.2332916-0.1051016-0.4841003-0.1576519-0.7524261-0.1576519c-0.3471527,0-0.5939789,0.0652905-0.7396851,0.1958704
		c-0.1457062,0.1289873-0.2181549,0.2770844-0.2181549,0.4426985c0,0.2229414,0.0923615,0.3853703,0.2778778,0.4888792
		c0.1847229,0.103508,0.4657898,0.1974621,0.8415985,0.2818613c0.2683258,0.0668831,0.5127716,0.1353579,0.7325287,0.2070179
		c0.2205505,0.07166,0.4100494,0.1624289,0.5684967,0.2723074c0.1592407,0.1082859,0.2818604,0.2436428,0.3678589,0.4060717
		c0.0859833,0.1624289,0.1289825,0.3646688,0.1289825,0.6099052c0,0.2277184-0.0477753,0.4283667-0.1425171,0.6019421
		c-0.0947571,0.1735764-0.2269287,0.3184891-0.3981171,0.4347363c-0.1703949,0.1162491-0.3710327,0.2038326-0.6011505,0.2627525
		C241.0033112,16.5853348,240.7540894,16.6140003,240.4857635,16.6140003z"/>
	<path class="st0" d="M243.516983,10.7824821v-0.7516317h0.8049774v0.7516317H243.516983z M243.5345001,16.5264149V11.79846
		h0.7699432v4.7279549H243.5345001z"/>
	<path class="st0" d="M247.4757843,18.3465748c-0.799408,0-1.3790588-0.1066933-1.741333-0.3200798
		c-0.3614807-0.2133884-0.5422211-0.4984341-0.5422211-0.8567333c0-0.2452354,0.0756378-0.4554386,0.2277069-0.6306076
		c0.1512909-0.1751671,0.361496-0.3137093,0.6298218-0.4156265c-0.2683258-0.1242104-0.4020996-0.3248577-0.4020996-0.5987577
		c0-0.1576509,0.0549469-0.2993784,0.1656189-0.4235888c0.1114655-0.125803,0.2523956-0.2388659,0.4243774-0.3375969
		c-0.2245331-0.1512823-0.4004974-0.3423748-0.5286865-0.5700941c-0.1289825-0.229311-0.192688-0.4936562-0.192688-0.7946281
		c0-0.2500124,0.0469818-0.4793243,0.1417389-0.6847486c0.0947418-0.2054253,0.2277069-0.3853712,0.3981018-0.5382452
		c0.1711884-0.152874,0.3742218-0.2707148,0.6107025-0.3535223c0.2356873-0.0828066,0.4936523-0.1242104,0.7739258-0.1242104
		c0.2914124,0,0.5557709,0.044589,0.7914429,0.1353579c0.2364807,0.0891771,0.4379272,0.2102022,0.6035309,0.3582993
		c0.1465149-0.1082859,0.3216858-0.20224,0.5270996-0.2818623c0.2062225-0.081214,0.4036865-0.1337652,0.5931854-0.1608362v0.683157
		c-0.1313782,0-0.2715149,0.0111465-0.4203949,0.0350332c-0.1481018,0.0238867-0.2914276,0.0621052-0.4283752,0.1178408
		c0.1600494,0.2277193,0.2404633,0.4984341,0.2404633,0.8137369c0,0.2563829-0.0469818,0.4888792-0.1417236,0.6958971
		c-0.0947571,0.2070169-0.2277222,0.3837776-0.3981171,0.5286903c-0.1711884,0.1465044-0.3726349,0.2595673-0.6059265,0.3391895
		s-0.4872894,0.1210251-0.7611847,0.1210251c-0.1369476,0-0.2667389-0.0111465-0.3893433-0.0318489
		c-0.1226196-0.0191088-0.2436523-0.0477724-0.3630829-0.0828066c-0.1019135,0.0461807-0.183136,0.098731-0.2428436,0.1560593
		c-0.0597229,0.0557356-0.0891876,0.1273956-0.0891876,0.2117949c0,0.098731,0.0461884,0.1719837,0.1393433,0.2213488
		c0.0939636,0.0477734,0.2659454,0.0828066,0.5167542,0.1066933l0.9666138,0.0828075
		c0.6035309,0.0414028,1.0549774,0.1592436,1.355957,0.3567057c0.3001709,0.197464,0.4506531,0.4856949,0.4506531,0.8678799
		c0,0.2277203-0.0565186,0.426775-0.1687927,0.5971661s-0.2707214,0.3137112-0.4745483,0.426775
		c-0.2038269,0.1130619-0.4474792,0.2006474-0.7301331,0.2595673
		C248.1286926,18.3163185,247.8165741,18.3465748,247.4757843,18.3465748z M247.5761108,17.7637424
		c0.4697723,0,0.837616-0.0652905,1.1043549-0.1958714c0.2675323-0.1321716,0.4004974-0.305748,0.4004974-0.5207272
		c0-0.2102032-0.0939484-0.3678551-0.2818604-0.4729557s-0.5302887-0.175169-1.025528-0.2102013l-0.8973389-0.0605125
		l-0.2707214-0.0270729c-0.2245331,0.0828075-0.3965149,0.1926861-0.5167389,0.3312283
		c-0.1194458,0.1385422-0.1791534,0.2882309-0.1791534,0.4474754c0,0.2388668,0.129776,0.4172192,0.3893433,0.5334682
		C246.5585327,17.7064133,246.9845123,17.7637424,247.5761108,17.7637424z M247.4495087,14.5183477
		c0.3646698,0,0.6520996-0.098731,0.8639069-0.2946014c0.2109985-0.1974621,0.3168945-0.4665852,0.3168945-0.8073673
		c0-0.3439674-0.1027222-0.6162748-0.308136-0.8185139c-0.2054291-0.2006483-0.4992371-0.300972-0.881424-0.300972
		c-0.3702393,0-0.6616516,0.1019163-0.8750458,0.3057489c-0.2125854,0.2038326-0.3192902,0.47614-0.3192902,0.8137369
		c0,0.3407822,0.1098785,0.6099052,0.3280487,0.8073673C246.7934265,14.4196167,247.0848389,14.5183477,247.4495087,14.5183477z"/>
	<path class="st0" d="M250.874054,16.5264149V9.8954935h0.7787018v2.6068249
		c0.1019135-0.098731,0.2157745-0.197463,0.3407898-0.2930088c0.1257935-0.0971394,0.2627411-0.1831312,0.4116364-0.2611609
		c0.1488953-0.076437,0.308136-0.1369495,0.4785309-0.1831303c0.1711884-0.0445881,0.3511353-0.0668831,0.5406342-0.0668831
		c0.4546356,0,0.8017883,0.1226187,1.0406647,0.3710394c0.2396545,0.2484207,0.3590851,0.5971651,0.3590851,1.0446405v3.4125996
		h-0.7699432V13.285799c0-0.3184881-0.0692749-0.5509844-0.2078094-0.7006741
		c-0.1385498-0.148097-0.3598938-0.2229414-0.6624603-0.2229414c-0.2858429,0-0.5501862,0.0684748-0.7922363,0.2054243
		c-0.2420502,0.1369505-0.4880829,0.323266-0.7388916,0.5557623v3.4030447H250.874054z"/>
	<path class="st0" d="M257.7987671,16.5869274c-0.4960327,0-0.8399963-0.0971375-1.0318909-0.2946014
		c-0.192688-0.1974621-0.289032-0.5000257-0.289032-0.912468v-2.947607h-0.8224945V11.79846h0.8224945V10.113658h0.7739258V11.79846
		h1.2254028v0.633791H257.25177v2.777216c0,0.251606,0.0509644,0.4395132,0.1512756,0.5653162
		c0.1003418,0.1242104,0.2954102,0.1879082,0.5836487,0.1879082c0.0820007,0,0.1664124-0.0063696,0.2539978-0.0175171
		c0.0875854-0.0127392,0.163208-0.027071,0.2277222-0.0445881v0.6337919
		c-0.0645142,0.0127392-0.1632385,0.0238857-0.2954102,0.0350323
		C258.0400391,16.5821514,257.9158325,16.5869274,257.7987671,16.5869274z"/>
	<path class="st0" d="M261.0473633,16.6140003c-0.4291687,0-0.8113403-0.0764389-1.1465759-0.2277203
		c-0.3352051-0.1512814-0.5971375-0.3439674-0.7866516-0.5764627l0.4634094-0.4649925
		c0.1807251,0.1894999,0.3917236,0.3455591,0.6337891,0.4681768c0.2420349,0.1226187,0.5238953,0.1847239,0.8447876,0.1847239
		c0.3702393,0,0.6520996-0.0636978,0.8463745-0.1879082c0.1934814-0.125803,0.2906189-0.3105259,0.2906189-0.5557623
		c0-0.2388659-0.1011047-0.4156265-0.3041382-0.530282c-0.20224-0.1130638-0.5064087-0.2165718-0.9116821-0.3105259
		c-0.250824-0.0605135-0.48172-0.1273956-0.6911316-0.1990557c-0.2102051-0.0716591-0.3877563-0.1592436-0.5334473-0.2643452
		c-0.1465149-0.1051006-0.260376-0.2340879-0.3439636-0.3885555c-0.0828247-0.1544666-0.1242371-0.3455591-0.1242371-0.5732784
		c0-0.1783533,0.0366516-0.3455591,0.1114807-0.5016184c0.0740356-0.1560593,0.183136-0.2914171,0.3256531-0.4076653
		c0.1433105-0.1178398,0.317688-0.2102013,0.5247192-0.278677c0.2070007-0.0684748,0.4395142-0.1019163,0.6958923-0.1019163
		c0.4172058,0,0.7675476,0.0605135,1.0518188,0.1831312c0.2842407,0.1226177,0.5358276,0.2882318,0.7547913,0.4984341
		l-0.4028625,0.5111732c-0.1775818-0.1687984-0.3829956-0.3057489-0.6163025-0.4108496
		c-0.2332764-0.1051016-0.4841003-0.1576519-0.7524109-0.1576519c-0.347168,0-0.5939941,0.0652905-0.7396851,0.1958704
		c-0.1457214,0.1289873-0.2181702,0.2770844-0.2181702,0.4426985c0,0.2229414,0.0923462,0.3853703,0.2778931,0.4888792
		c0.1847229,0.103508,0.4657898,0.1974621,0.8415833,0.2818613c0.2683411,0.0668831,0.5127869,0.1353579,0.7325439,0.2070179
		c0.2205505,0.07166,0.4100342,0.1624289,0.5684814,0.2723074c0.1592407,0.1082859,0.2818604,0.2436428,0.3678589,0.4060717
		s0.1289978,0.3646688,0.1289978,0.6099052c0,0.2277184-0.0477905,0.4283667-0.1425171,0.6019421
		c-0.0947571,0.1735764-0.2269287,0.3184891-0.3981323,0.4347363c-0.1703796,0.1162491-0.3710327,0.2038326-0.6011353,0.2627525
		S261.3156738,16.6140003,261.0473633,16.6140003z"/>
	<path class="st0" d="M266.5054626,16.5264149V12.432251h-0.8264771V11.79846h0.8264771v-0.6385689
		c0-0.399703,0.1122437-0.7134132,0.3352051-0.9411325c0.2229309-0.2277193,0.5852051-0.3407822,1.0868225-0.3407822
		c0.0668945,0,0.1481018,0.004777,0.2428589,0.0143318c0.0947571,0.0111475,0.1608276,0.0159245,0.1990662,0.0159245v0.6258287
		c-0.0382385-0.0111465-0.0899963-0.0191088-0.1552734-0.022294c-0.0661011-0.0031843-0.125-0.004777-0.1775513-0.004777
		c-0.2157898,0-0.3965149,0.0461807-0.5422363,0.1385422s-0.2189636,0.2659378-0.2189636,0.5223207V11.79846h1.0366821v0.633791
		h-1.0366821v4.0941639H266.5054626z"/>
	<path class="st0" d="M269.2221375,16.5264149V11.79846h0.7699585v0.8742495h0.0175171
		c0.1719971-0.2739,0.40448-0.5048037,0.6974792-0.6927118c0.2930298-0.1879082,0.6696167-0.2818623,1.1306458-0.2818623h0.096344
		l-0.0525513,0.7165985c-0.0119324-0.0063696-0.0493774-0.0079622-0.1138611-0.0079622h-0.1090698
		c-0.3766174,0-0.7046814,0.0923615-0.9865417,0.2770844c-0.2810669,0.1847239-0.5079651,0.4474764-0.6799622,0.7898512v3.0527077
		H269.2221375z"/>
	<path class="st0" d="M274.522583,16.6267395c-0.2858276,0-0.5621338-0.0525513-0.8288574-0.1576519
		s-0.5016174-0.2595673-0.7038574-0.4649925c-0.2030334-0.2054253-0.3654785-0.4618082-0.4880981-0.7707415
		c-0.1226196-0.3073406-0.1838989-0.6656399-0.1838989-1.0733051c0-0.4060717,0.0596924-0.7611866,0.1799316-1.0701199
		c0.1194458-0.3073406,0.2802734-0.5637236,0.4833069-0.7691488c0.20224-0.2054243,0.4371338-0.3614836,0.7038574-0.4665852
		c0.2667236-0.1051006,0.5462036-0.1560593,0.837616-0.1560593c0.2858582,0,0.5621338,0.0509586,0.8288574,0.1560593
		c0.2667542,0.1051016,0.5016479,0.2611609,0.7046814,0.4665852c0.20224,0.2054253,0.3638611,0.4618082,0.4833069,0.7691488
		c0.1194153,0.3089333,0.1791382,0.6640482,0.1791382,1.0701199c0,0.4076653-0.0597229,0.7659645-0.1791382,1.0733051
		c-0.1194458,0.3089333-0.2810669,0.5653162-0.4833069,0.7707415c-0.2030334,0.2054253-0.4379272,0.3598919-0.7046814,0.4649925
		C275.0847168,16.5741882,274.8084412,16.6267395,274.522583,16.6267395z M274.522583,15.9706535
		c0.221344,0,0.4204102-0.0429955,0.597168-0.1289873s0.3256531-0.2086096,0.4482727-0.3678541
		c0.1226196-0.1576519,0.2149963-0.350337,0.2778931-0.5748711s0.0939331-0.4713621,0.0939331-0.7388926
		c0-0.2452354-0.0294495-0.4761391-0.0899658-0.6927109c-0.0597229-0.2181644-0.1473083-0.4092579-0.2643433-0.5732794
		c-0.1162415-0.1656132-0.2643433-0.2946014-0.4434814-0.3901472c-0.1799622-0.0939541-0.3861694-0.1417274-0.6194763-0.1417274
		c-0.2269287,0-0.4291687,0.0429955-0.6059265,0.1289873c-0.1759644,0.0859919-0.3256531,0.2086096-0.4482727,0.3678541
		c-0.1226196,0.1592436-0.2149658,0.3487444-0.2778625,0.5685015c-0.0621033,0.2197561-0.0939636,0.4649925-0.0939636,0.732522
		c0,0.2500134,0.0302734,0.4872875,0.0899658,0.7086363c0.0597229,0.2213488,0.1481018,0.4124422,0.2643433,0.5732784
		c0.1170654,0.1608362,0.2651672,0.2882318,0.4443054,0.3853703
		C274.0743103,15.9228802,274.2837219,15.9706535,274.522583,15.9706535z"/>
	<path class="st0" d="M277.812561,16.5264149V11.79846h0.7699585v0.7118206
		c0.2277222-0.224534,0.4777222-0.4156275,0.7524109-0.5748711c0.2739258-0.1592445,0.5900269-0.2372742,0.9490967-0.2372742
		c0.3997192,0,0.6943054,0.076438,0.884613,0.2293119c0.1911011,0.152874,0.3296204,0.355114,0.414032,0.6051273
		c0.2277222-0.2277193,0.4856873-0.4235888,0.7739258-0.5876102c0.2882385-0.1656141,0.6130981-0.246829,0.971405-0.246829
		c0.4841003,0,0.8344116,0.1273956,1.049408,0.3837786c0.2165833,0.2563829,0.3232727,0.6019421,0.3232727,1.0319014v3.4125996
		h-0.7739258V13.285799c0-0.3184881-0.0589294-0.5509844-0.1767578-0.7006741
		c-0.1178589-0.148097-0.3328247-0.2229414-0.6449585-0.2229414c-0.269104,0-0.5159302,0.0684748-0.7436523,0.2054243
		c-0.2277222,0.1369505-0.4665833,0.323266-0.7182007,0.5557623v3.4030447h-0.7683411V13.285799
		c0-0.3184881-0.0605164-0.5509844-0.1799622-0.7006741c-0.1194153-0.148097-0.3336182-0.2229414-0.6425476-0.2229414
		c-0.2627563,0-0.510376,0.0684748-0.7436829,0.2054243c-0.2332764,0.1369505-0.4753418,0.323266-0.7261353,0.5557623v3.4030447
		H277.812561z"/>
</g>
<g>
</g>
<g>
</g>
<g>
</g>
<g>
</g>
<g>
</g>
<g>
</g>
</svg>
